<svg width="353" height="878" viewBox="0 0 353 878" fill="none" xmlns="http://www.w3.org/2000/svg">
<path d="M329.5 855.5C329.5 867.63 319.223 877.5 306.5 877.5C293.777 877.5 283.5 867.63 283.5 855.5C283.5 843.37 293.777 833.5 306.5 833.5C319.223 833.5 329.5 843.37 329.5 855.5Z" stroke="white" stroke-opacity="0.5"/>
<path d="M339.5 523.5C339.5 540.599 324.971 554.5 307 554.5C289.029 554.5 274.5 540.599 274.5 523.5C274.5 506.401 289.029 492.5 307 492.5C324.971 492.5 339.5 506.401 339.5 523.5Z" stroke="white" stroke-opacity="0.5"/>
<path d="M139.5 819C139.5 825.886 133.698 831.5 126.5 831.5C119.302 831.5 113.5 825.886 113.5 819C113.5 812.114 119.302 806.5 126.5 806.5C133.698 806.5 139.5 812.114 139.5 819Z" stroke="white" stroke-opacity="0.5"/>
<path d="M352.5 13C352.5 19.8859 346.698 25.5 339.5 25.5C332.302 25.5 326.5 19.8859 326.5 13C326.5 6.11406 332.302 0.5 339.5 0.5C346.698 0.5 352.5 6.11406 352.5 13Z" stroke="white" stroke-opacity="0.5"/>
<path d="M40.5 36.5C40.5 46.9701 31.5696 55.5 20.5 55.5C9.43045 55.5 0.5 46.9701 0.5 36.5C0.5 26.0299 9.43045 17.5 20.5 17.5C31.5696 17.5 40.5 26.0299 40.5 36.5Z" stroke="white" stroke-opacity="0.5"/>
</svg>
