<svg width="118" height="182" viewBox="0 0 118 182" fill="none" xmlns="http://www.w3.org/2000/svg">
<g clip-path="url(#clip0)">
<path d="M4.88906 167.619H9.40762V169H3.15957V159.047H4.88906V167.619ZM18.5896 164.283C18.5896 165.258 18.421 166.115 18.0838 166.854C17.7465 167.587 17.2635 168.152 16.6346 168.549C16.0102 168.941 15.2902 169.137 14.4744 169.137C13.6678 169.137 12.9477 168.941 12.3143 168.549C11.6853 168.152 11.1977 167.59 10.8514 166.86C10.5096 166.131 10.3364 165.29 10.3318 164.338V163.777C10.3318 162.807 10.5027 161.95 10.8445 161.207C11.1909 160.464 11.6762 159.897 12.3006 159.505C12.9295 159.108 13.6495 158.91 14.4607 158.91C15.2719 158.91 15.9897 159.106 16.6141 159.498C17.243 159.885 17.7283 160.446 18.0701 161.18C18.4119 161.909 18.5851 162.759 18.5896 163.729V164.283ZM16.8602 163.764C16.8602 162.661 16.6505 161.815 16.2312 161.228C15.8165 160.64 15.2264 160.346 14.4607 160.346C13.7133 160.346 13.1277 160.64 12.7039 161.228C12.2846 161.811 12.0704 162.638 12.0613 163.709V164.283C12.0613 165.377 12.2732 166.222 12.6971 166.819C13.1255 167.416 13.7179 167.715 14.4744 167.715C15.24 167.715 15.8279 167.423 16.2381 166.84C16.6528 166.257 16.8602 165.404 16.8602 164.283V163.764ZM23.6086 163.764L25.8986 159.047H27.8127L24.4768 165.336V169H22.7404V165.336L19.3977 159.047H21.3186L23.6086 163.764ZM33.7887 166.683H29.9332L29.1266 169H27.3287L31.0885 159.047H32.6402L36.4068 169H34.6021L33.7887 166.683ZM30.4186 165.288H33.3033L31.8609 161.159L30.4186 165.288ZM39.6211 167.619H44.1396V169H37.8916V159.047H39.6211V167.619ZM54.8543 166.437C54.8543 165.999 54.6993 165.662 54.3895 165.425C54.0841 165.188 53.5304 164.949 52.7283 164.707C51.9262 164.465 51.2882 164.197 50.8143 163.9C49.9074 163.331 49.4539 162.588 49.4539 161.672C49.4539 160.87 49.7797 160.209 50.4314 159.689C51.0877 159.17 51.9376 158.91 52.9812 158.91C53.674 158.91 54.2915 159.038 54.8338 159.293C55.3761 159.548 55.8022 159.913 56.1121 160.387C56.422 160.856 56.577 161.378 56.577 161.952H54.8543C54.8543 161.433 54.6902 161.027 54.3621 160.735C54.0385 160.439 53.5737 160.291 52.9676 160.291C52.4025 160.291 51.9627 160.412 51.6482 160.653C51.3383 160.895 51.1834 161.232 51.1834 161.665C51.1834 162.03 51.352 162.335 51.6893 162.581C52.0265 162.823 52.5825 163.06 53.3572 163.292C54.132 163.52 54.754 163.782 55.2234 164.078C55.6928 164.37 56.0369 164.707 56.2557 165.09C56.4744 165.468 56.5838 165.912 56.5838 166.423C56.5838 167.252 56.2648 167.913 55.6268 168.405C54.9933 168.893 54.132 169.137 53.0428 169.137C52.3227 169.137 51.6596 169.005 51.0535 168.74C50.452 168.471 49.9825 168.102 49.6453 167.633C49.3126 167.163 49.1463 166.617 49.1463 165.992H50.8758C50.8758 166.557 51.0626 166.995 51.4363 167.305C51.81 167.615 52.3455 167.77 53.0428 167.77C53.6443 167.77 54.0955 167.649 54.3963 167.407C54.7016 167.161 54.8543 166.838 54.8543 166.437ZM66.3537 169H64.6311V164.577H60.1809V169H58.4514V159.047H60.1809V163.189H64.6311V159.047H66.3537V169ZM76.6979 164.283C76.6979 165.258 76.5292 166.115 76.192 166.854C75.8548 167.587 75.3717 168.152 74.7428 168.549C74.1184 168.941 73.3984 169.137 72.5826 169.137C71.776 169.137 71.0559 168.941 70.4225 168.549C69.7936 168.152 69.3059 167.59 68.9596 166.86C68.6178 166.131 68.4446 165.29 68.44 164.338V163.777C68.44 162.807 68.6109 161.95 68.9527 161.207C69.2991 160.464 69.7844 159.897 70.4088 159.505C71.0377 159.108 71.7577 158.91 72.5689 158.91C73.3801 158.91 74.0979 159.106 74.7223 159.498C75.3512 159.885 75.8365 160.446 76.1783 161.18C76.5201 161.909 76.6933 162.759 76.6979 163.729V164.283ZM74.9684 163.764C74.9684 162.661 74.7587 161.815 74.3395 161.228C73.9247 160.64 73.3346 160.346 72.5689 160.346C71.8216 160.346 71.2359 160.64 70.8121 161.228C70.3928 161.811 70.1786 162.638 70.1695 163.709V164.283C70.1695 165.377 70.3814 166.222 70.8053 166.819C71.2337 167.416 71.8261 167.715 72.5826 167.715C73.3482 167.715 73.9361 167.423 74.3463 166.84C74.761 166.257 74.9684 165.404 74.9684 164.283V163.764ZM86.5771 166.539L88.1084 159.047H89.8242L87.5273 169H85.873L83.9795 161.733L82.0449 169H80.3838L78.0869 159.047H79.8027L81.3477 166.525L83.248 159.047H84.6973L86.5771 166.539ZM102.87 165.76C102.77 166.822 102.378 167.651 101.694 168.248C101.011 168.84 100.101 169.137 98.9666 169.137C98.1736 169.137 97.4741 168.95 96.868 168.576C96.2664 168.198 95.8016 167.662 95.4734 166.97C95.1453 166.277 94.9744 165.473 94.9607 164.557V163.627C94.9607 162.688 95.1271 161.861 95.4598 161.146C95.7924 160.43 96.2687 159.879 96.8885 159.491C97.5128 159.104 98.2329 158.91 99.0486 158.91C100.147 158.91 101.031 159.209 101.701 159.806C102.371 160.403 102.761 161.246 102.87 162.335H101.147C101.065 161.619 100.856 161.104 100.518 160.79C100.186 160.471 99.6958 160.312 99.0486 160.312C98.2967 160.312 97.7179 160.587 97.3123 161.139C96.9113 161.686 96.7062 162.49 96.6971 163.552V164.434C96.6971 165.509 96.8885 166.329 97.2713 166.895C97.6587 167.46 98.2238 167.742 98.9666 167.742C99.6456 167.742 100.156 167.59 100.498 167.284C100.84 166.979 101.056 166.471 101.147 165.76H102.87ZM112.715 164.283C112.715 165.258 112.546 166.115 112.209 166.854C111.872 167.587 111.389 168.152 110.76 168.549C110.136 168.941 109.416 169.137 108.6 169.137C107.793 169.137 107.073 168.941 106.44 168.549C105.811 168.152 105.323 167.59 104.977 166.86C104.635 166.131 104.462 165.29 104.457 164.338V163.777C104.457 162.807 104.628 161.95 104.97 161.207C105.316 160.464 105.802 159.897 106.426 159.505C107.055 159.108 107.775 158.91 108.586 158.91C109.397 158.91 110.115 159.106 110.739 159.498C111.368 159.885 111.854 160.446 112.196 161.18C112.537 161.909 112.71 162.759 112.715 163.729V164.283ZM110.986 163.764C110.986 162.661 110.776 161.815 110.357 161.228C109.942 160.64 109.352 160.346 108.586 160.346C107.839 160.346 107.253 160.64 106.829 161.228C106.41 161.811 106.196 162.638 106.187 163.709V164.283C106.187 165.377 106.399 166.222 106.822 166.819C107.251 167.416 107.843 167.715 108.6 167.715C109.365 167.715 109.953 167.423 110.363 166.84C110.778 166.257 110.986 165.404 110.986 164.283V163.764ZM114.829 167.25C115.139 167.25 115.378 167.339 115.546 167.517C115.715 167.69 115.799 167.909 115.799 168.173C115.799 168.433 115.715 168.649 115.546 168.822C115.378 168.991 115.139 169.075 114.829 169.075C114.532 169.075 114.298 168.991 114.125 168.822C113.951 168.654 113.865 168.437 113.865 168.173C113.865 167.909 113.949 167.69 114.118 167.517C114.286 167.339 114.523 167.25 114.829 167.25Z" fill="#3C3D59" fill-opacity="0.9"/>
<path d="M2.2834 178.299L2.7914 178.191C2.84474 178.178 2.88874 178.15 2.9234 178.107C2.96074 178.064 2.9794 178.014 2.9794 177.955V173.507C2.9794 173.446 2.96074 173.394 2.9234 173.351C2.88874 173.308 2.84474 173.28 2.7914 173.267L2.2834 173.163V172.975H6.2994V174.267H6.0754L5.7914 173.415C5.77807 173.375 5.7594 173.342 5.7354 173.315C5.7114 173.288 5.6754 173.275 5.6274 173.275H3.6994V175.463H4.9634C5.01674 175.463 5.0554 175.451 5.0794 175.427C5.1034 175.403 5.12207 175.372 5.1354 175.335L5.3634 174.679H5.5594V176.555H5.3634L5.1354 175.907C5.12207 175.864 5.1034 175.831 5.0794 175.807C5.0554 175.78 5.01674 175.767 4.9634 175.767H3.6994V178.183H5.9714C6.0194 178.183 6.0554 178.171 6.0794 178.147C6.1034 178.12 6.12207 178.086 6.1354 178.043L6.4034 177.079H6.6274V178.487H2.2834V178.299ZM6.88228 178.299L7.17828 178.207C7.23962 178.186 7.29962 178.147 7.35828 178.091C7.41962 178.035 7.46895 177.982 7.50628 177.931L9.01428 175.799L7.53828 173.499C7.52228 173.475 7.50362 173.451 7.48228 173.427C7.46095 173.4 7.43828 173.376 7.41428 173.355C7.39028 173.331 7.36628 173.311 7.34228 173.295C7.31828 173.276 7.29562 173.264 7.27428 173.259L6.93028 173.163V172.975H8.92228V173.163L8.23428 173.295L9.23428 174.875L9.51428 175.335L10.8463 173.311L10.1943 173.163V172.975H11.7503V173.163L11.4543 173.251C11.3956 173.27 11.3356 173.308 11.2743 173.367C11.213 173.426 11.1636 173.48 11.1263 173.531L9.69428 175.587L11.2103 177.963C11.2396 178.008 11.2796 178.056 11.3303 178.107C11.3836 178.155 11.4303 178.186 11.4703 178.199L11.8143 178.299V178.487H9.82228V178.299L10.5103 178.167L9.47028 176.519L9.19428 176.055L7.79428 178.151L8.43828 178.299V178.487H6.88228V178.299ZM12.0129 178.299L12.5209 178.191C12.5742 178.178 12.6182 178.15 12.6529 178.107C12.6902 178.064 12.7089 178.014 12.7089 177.955V173.507C12.7089 173.446 12.6902 173.394 12.6529 173.351C12.6182 173.308 12.5742 173.28 12.5209 173.267L12.0129 173.163V172.975H14.1249V173.163L13.6209 173.267C13.5676 173.28 13.5222 173.31 13.4849 173.355C13.4476 173.398 13.4289 173.448 13.4289 173.507V175.463H16.1089V173.507C16.1089 173.446 16.0902 173.395 16.0529 173.355C16.0182 173.315 15.9742 173.286 15.9209 173.267L15.4129 173.163V172.975H17.5249V173.163L17.0169 173.267C16.9636 173.278 16.9182 173.306 16.8809 173.351C16.8462 173.396 16.8289 173.448 16.8289 173.507V177.955C16.8289 178.016 16.8462 178.068 16.8809 178.111C16.9182 178.151 16.9636 178.178 17.0169 178.191L17.5249 178.299V178.487H15.4129V178.299L15.9209 178.191C15.9742 178.178 16.0182 178.15 16.0529 178.107C16.0902 178.064 16.1089 178.014 16.1089 177.955V175.775H13.4289V177.955C13.4289 178.016 13.4462 178.068 13.4809 178.111C13.5182 178.151 13.5649 178.178 13.6209 178.191L14.1249 178.299V178.487H12.0129V178.299ZM17.9016 178.299L18.4096 178.191C18.4629 178.178 18.5069 178.15 18.5416 178.107C18.5789 178.064 18.5976 178.014 18.5976 177.955V173.507C18.5976 173.446 18.5789 173.394 18.5416 173.351C18.5069 173.308 18.4629 173.28 18.4096 173.267L17.9016 173.163V172.975H20.0136V173.163L19.5096 173.267C19.4562 173.28 19.4109 173.31 19.3736 173.355C19.3362 173.398 19.3176 173.448 19.3176 173.507V177.955C19.3176 178.016 19.3349 178.068 19.3696 178.111C19.4069 178.151 19.4536 178.178 19.5096 178.191L20.0136 178.299V178.487H17.9016V178.299ZM20.3977 178.299L20.9057 178.191C20.959 178.178 21.003 178.15 21.0377 178.107C21.075 178.064 21.0937 178.014 21.0937 177.955V173.507C21.0937 173.446 21.075 173.394 21.0377 173.351C21.003 173.308 20.959 173.28 20.9057 173.267L20.3977 173.163V172.975H22.3897C22.7897 172.975 23.1177 173.01 23.3737 173.079C23.6323 173.146 23.835 173.236 23.9817 173.351C24.1283 173.463 24.2297 173.592 24.2857 173.739C24.3417 173.886 24.3697 174.038 24.3697 174.195C24.3697 174.368 24.3417 174.528 24.2857 174.675C24.2297 174.822 24.1497 174.954 24.0457 175.071C23.9417 175.188 23.8163 175.29 23.6697 175.375C23.523 175.458 23.3603 175.523 23.1817 175.571C23.395 175.579 23.595 175.616 23.7817 175.683C23.971 175.747 24.135 175.836 24.2737 175.951C24.415 176.063 24.5257 176.199 24.6057 176.359C24.6883 176.519 24.7297 176.699 24.7297 176.899C24.7297 177.11 24.699 177.295 24.6377 177.455C24.579 177.615 24.4963 177.754 24.3897 177.871C24.2857 177.988 24.1617 178.087 24.0177 178.167C23.8763 178.244 23.723 178.307 23.5577 178.355C23.395 178.403 23.2243 178.438 23.0457 178.459C22.867 178.478 22.6883 178.487 22.5097 178.487H20.3977V178.299ZM22.1777 175.515C22.4443 175.515 22.6683 175.491 22.8497 175.443C23.0337 175.395 23.1817 175.327 23.2937 175.239C23.4057 175.148 23.4857 175.039 23.5337 174.911C23.5843 174.78 23.6097 174.634 23.6097 174.471C23.6097 174.258 23.5817 174.075 23.5257 173.923C23.4723 173.771 23.391 173.647 23.2817 173.551C23.1723 173.452 23.035 173.38 22.8697 173.335C22.707 173.29 22.5163 173.267 22.2977 173.267H21.8137V175.515H22.1777ZM22.6577 178.191C23.0843 178.191 23.4043 178.103 23.6177 177.927C23.831 177.751 23.9377 177.463 23.9377 177.063C23.9377 176.828 23.9083 176.631 23.8497 176.471C23.791 176.308 23.7003 176.178 23.5777 176.079C23.455 175.978 23.2977 175.904 23.1057 175.859C22.9163 175.814 22.691 175.791 22.4297 175.791H21.8137V178.191H22.6577ZM25.2404 178.299L25.7484 178.191C25.8018 178.178 25.8458 178.15 25.8804 178.107C25.9178 178.064 25.9364 178.014 25.9364 177.955V173.507C25.9364 173.446 25.9178 173.394 25.8804 173.351C25.8458 173.308 25.8018 173.28 25.7484 173.267L25.2404 173.163V172.975H27.3524V173.163L26.8484 173.267C26.7951 173.28 26.7498 173.31 26.7124 173.355C26.6751 173.398 26.6564 173.448 26.6564 173.507V177.955C26.6564 178.016 26.6738 178.068 26.7084 178.111C26.7458 178.151 26.7924 178.178 26.8484 178.191L27.3524 178.299V178.487H25.2404V178.299ZM28.8605 178.299L29.4485 178.191C29.5019 178.18 29.5459 178.154 29.5805 178.111C29.6179 178.066 29.6365 178.014 29.6365 177.955V173.275H28.3605C28.3072 173.275 28.2685 173.288 28.2445 173.315C28.2205 173.342 28.2019 173.375 28.1885 173.415L27.9005 174.299H27.6885V172.975H32.3165V174.299H32.1045L31.8165 173.415C31.8032 173.375 31.7845 173.342 31.7605 173.315C31.7392 173.288 31.7032 173.275 31.6525 173.275H30.3565V177.955C30.3565 178.016 30.3752 178.068 30.4125 178.111C30.4499 178.154 30.4952 178.18 30.5485 178.191L31.1365 178.299V178.487H28.8605V178.299ZM32.6408 178.299L33.1488 178.191C33.2022 178.178 33.2462 178.15 33.2808 178.107C33.3182 178.064 33.3368 178.014 33.3368 177.955V173.507C33.3368 173.446 33.3182 173.394 33.2808 173.351C33.2462 173.308 33.2022 173.28 33.1488 173.267L32.6408 173.163V172.975H34.7528V173.163L34.2488 173.267C34.1955 173.28 34.1502 173.31 34.1128 173.355C34.0755 173.398 34.0568 173.448 34.0568 173.507V177.955C34.0568 178.016 34.0742 178.068 34.1088 178.111C34.1462 178.151 34.1928 178.178 34.2488 178.191L34.7528 178.299V178.487H32.6408V178.299ZM37.7409 178.611C37.3329 178.611 36.9716 178.54 36.6569 178.399C36.3423 178.255 36.0769 178.056 35.8609 177.803C35.6449 177.547 35.4809 177.243 35.3689 176.891C35.2569 176.536 35.2009 176.148 35.2009 175.727C35.2009 175.327 35.2583 174.952 35.3729 174.603C35.4903 174.254 35.6583 173.95 35.8769 173.691C36.0956 173.43 36.3623 173.224 36.6769 173.075C36.9916 172.926 37.3489 172.851 37.7489 172.851C38.1809 172.851 38.5556 172.928 38.8729 173.083C39.1929 173.235 39.4569 173.442 39.6649 173.703C39.8756 173.964 40.0316 174.27 40.1329 174.619C40.2369 174.966 40.2889 175.335 40.2889 175.727C40.2889 175.959 40.2676 176.191 40.2249 176.423C40.1823 176.655 40.1156 176.878 40.0249 177.091C39.9369 177.304 39.8236 177.504 39.6849 177.691C39.5489 177.875 39.3863 178.035 39.1969 178.171C39.0076 178.307 38.7916 178.414 38.5489 178.491C38.3089 178.571 38.0396 178.611 37.7409 178.611ZM37.8169 178.323C38.0969 178.323 38.3409 178.26 38.5489 178.135C38.7596 178.007 38.9343 177.832 39.0729 177.611C39.2143 177.39 39.3196 177.13 39.3889 176.831C39.4609 176.53 39.4969 176.206 39.4969 175.859C39.4969 175.459 39.4596 175.092 39.3849 174.759C39.3129 174.426 39.2009 174.139 39.0489 173.899C38.8996 173.659 38.7103 173.472 38.4809 173.339C38.2516 173.206 37.9809 173.139 37.6689 173.139C37.3729 173.139 37.1183 173.207 36.9049 173.343C36.6943 173.479 36.5209 173.66 36.3849 173.887C36.2516 174.111 36.1529 174.371 36.0889 174.667C36.0276 174.96 35.9969 175.267 35.9969 175.587C35.9969 175.979 36.0329 176.342 36.1049 176.675C36.1769 177.008 36.2876 177.298 36.4369 177.543C36.5863 177.786 36.7743 177.976 37.0009 178.115C37.2303 178.254 37.5023 178.323 37.8169 178.323ZM40.7356 178.299L41.2436 178.167C41.2969 178.154 41.3409 178.126 41.3756 178.083C41.4129 178.038 41.4316 177.987 41.4316 177.931V173.523C41.4316 173.462 41.4129 173.411 41.3756 173.371C41.3409 173.328 41.2969 173.3 41.2436 173.287L40.6956 173.163V172.975H42.0396L44.6836 176.775L45.0596 177.323V173.531C45.0596 173.47 45.0409 173.419 45.0036 173.379C44.9689 173.336 44.9249 173.308 44.8716 173.295L44.3636 173.163V172.975H46.1036V173.163L45.5956 173.295C45.5422 173.308 45.4969 173.336 45.4596 173.379C45.4222 173.422 45.4036 173.472 45.4036 173.531V177.571L45.2836 178.527H45.0596L42.1956 174.415L41.7756 173.803V177.931C41.7756 177.992 41.7929 178.044 41.8276 178.087C41.8649 178.127 41.9102 178.154 41.9636 178.167L42.4716 178.299V178.487H40.7356V178.299ZM49.8396 175.503C49.6609 175.335 49.5182 175.186 49.4116 175.055C49.3049 174.924 49.2222 174.803 49.1636 174.691C49.1076 174.579 49.0702 174.474 49.0516 174.375C49.0356 174.276 49.0276 174.175 49.0276 174.071C49.0276 173.884 49.0729 173.716 49.1636 173.567C49.2542 173.415 49.3689 173.287 49.5076 173.183C49.6489 173.076 49.8049 172.995 49.9756 172.939C50.1489 172.88 50.3156 172.851 50.4756 172.851C50.6729 172.851 50.8556 172.878 51.0236 172.931C51.1916 172.984 51.3369 173.059 51.4596 173.155C51.5849 173.248 51.6822 173.36 51.7516 173.491C51.8209 173.619 51.8556 173.759 51.8556 173.911C51.8556 174.103 51.8236 174.283 51.7596 174.451C51.6982 174.619 51.6236 174.763 51.5356 174.883L50.6436 175.455L52.1396 176.987C52.2222 176.875 52.2942 176.755 52.3556 176.627C52.4169 176.499 52.4676 176.375 52.5076 176.255C52.5502 176.135 52.5822 176.027 52.6036 175.931C52.6249 175.832 52.6356 175.758 52.6356 175.707L51.9156 175.539V175.351H53.8396V175.539L53.3756 175.635C53.3222 175.648 53.2769 175.676 53.2396 175.719C53.2022 175.762 53.1689 175.814 53.1396 175.875C53.0729 176.011 53.0076 176.136 52.9436 176.251C52.8822 176.366 52.8182 176.476 52.7516 176.583C52.6876 176.687 52.6209 176.788 52.5516 176.887C52.4849 176.986 52.4142 177.086 52.3396 177.187L53.0116 177.851C53.0382 177.88 53.0702 177.914 53.1076 177.951C53.1476 177.986 53.1889 178.02 53.2316 178.055C53.2769 178.09 53.3209 178.12 53.3636 178.147C53.4089 178.171 53.4489 178.187 53.4836 178.195L53.9676 178.299V178.487H53.1436C53.0262 178.487 52.9302 178.48 52.8556 178.467C52.7809 178.454 52.7129 178.43 52.6516 178.395C52.5902 178.36 52.5276 178.312 52.4636 178.251C52.4022 178.187 52.3262 178.106 52.2356 178.007L51.9356 177.679C51.8076 177.828 51.6742 177.962 51.5356 178.079C51.3969 178.194 51.2529 178.291 51.1036 178.371C50.9542 178.448 50.7982 178.507 50.6356 178.547C50.4756 178.59 50.3076 178.611 50.1316 178.611C49.9182 178.611 49.7156 178.578 49.5236 178.511C49.3342 178.444 49.1662 178.35 49.0196 178.227C48.8756 178.102 48.7609 177.95 48.6756 177.771C48.5902 177.59 48.5476 177.387 48.5476 177.163C48.5476 177.075 48.5582 176.983 48.5796 176.887C48.6009 176.788 48.6302 176.692 48.6676 176.599C48.7076 176.503 48.7529 176.411 48.8036 176.323C48.8542 176.232 48.9089 176.151 48.9676 176.079L49.8396 175.503ZM50.4476 175.239C50.5996 175.151 50.7236 175.058 50.8196 174.959C50.9182 174.86 50.9969 174.758 51.0556 174.651C51.1142 174.542 51.1542 174.428 51.1756 174.311C51.1996 174.191 51.2116 174.068 51.2116 173.943C51.2116 173.687 51.1436 173.49 51.0076 173.351C50.8716 173.21 50.6916 173.139 50.4676 173.139C50.3582 173.139 50.2569 173.16 50.1636 173.203C50.0729 173.246 49.9929 173.304 49.9236 173.379C49.8569 173.451 49.8036 173.538 49.7636 173.639C49.7262 173.738 49.7076 173.843 49.7076 173.955C49.7076 174.067 49.7196 174.172 49.7436 174.271C49.7676 174.367 49.8076 174.464 49.8636 174.563C49.9222 174.662 49.9982 174.766 50.0916 174.875C50.1876 174.984 50.3062 175.106 50.4476 175.239ZM50.0316 175.711C49.9062 175.794 49.7969 175.878 49.7036 175.963C49.6102 176.048 49.5316 176.143 49.4676 176.247C49.4062 176.348 49.3596 176.464 49.3276 176.595C49.2982 176.723 49.2836 176.874 49.2836 177.047C49.2836 177.204 49.3102 177.346 49.3636 177.471C49.4169 177.596 49.4902 177.704 49.5836 177.795C49.6769 177.886 49.7862 177.955 49.9116 178.003C50.0396 178.051 50.1782 178.075 50.3276 178.075C50.4796 178.075 50.6196 178.064 50.7476 178.043C50.8782 178.019 50.9996 177.984 51.1116 177.939C51.2262 177.891 51.3356 177.83 51.4396 177.755C51.5436 177.68 51.6462 177.591 51.7476 177.487L50.0316 175.711ZM60.8459 177.411V177.747C60.7366 177.84 60.6099 177.938 60.4659 178.039C60.3219 178.138 60.1646 178.23 59.9939 178.315C59.8259 178.398 59.6473 178.466 59.4579 178.519C59.2686 178.575 59.0753 178.603 58.8779 178.603C58.4753 178.603 58.1113 178.538 57.7859 178.407C57.4633 178.274 57.1873 178.084 56.9579 177.839C56.7286 177.591 56.5513 177.291 56.4259 176.939C56.3033 176.584 56.2419 176.186 56.2419 175.743C56.2419 175.316 56.3086 174.926 56.4419 174.571C56.5779 174.216 56.7646 173.912 57.0019 173.659C57.2393 173.406 57.5179 173.21 57.8379 173.071C58.1606 172.93 58.5099 172.859 58.8859 172.859C59.0166 172.859 59.1606 172.868 59.3179 172.887C59.4753 172.906 59.6326 172.93 59.7899 172.959C59.9473 172.988 60.0979 173.022 60.2419 173.059C60.3859 173.096 60.5113 173.134 60.6179 173.171V174.447H60.4059L60.1499 173.747C60.1366 173.696 60.1153 173.659 60.0859 173.635C60.0566 173.611 60.0233 173.588 59.9859 173.567C59.9006 173.519 59.8046 173.474 59.6979 173.431C59.5913 173.388 59.4793 173.351 59.3619 173.319C59.2446 173.284 59.1259 173.258 59.0059 173.239C58.8886 173.22 58.7753 173.211 58.6659 173.211C58.4286 173.211 58.2099 173.262 58.0099 173.363C57.8099 173.462 57.6379 173.611 57.4939 173.811C57.3499 174.011 57.2379 174.262 57.1579 174.563C57.0779 174.862 57.0379 175.211 57.0379 175.611C57.0379 176.446 57.2153 177.072 57.5699 177.491C57.9246 177.91 58.4326 178.119 59.0939 178.119C59.3126 178.119 59.5073 178.096 59.6779 178.051C59.8486 178.003 60.0019 177.944 60.1379 177.875C60.2739 177.803 60.3926 177.726 60.4939 177.643C60.5979 177.56 60.6913 177.483 60.7739 177.411H60.8459ZM63.7565 178.611C63.3485 178.611 62.9872 178.54 62.6725 178.399C62.3579 178.255 62.0925 178.056 61.8765 177.803C61.6605 177.547 61.4965 177.243 61.3845 176.891C61.2725 176.536 61.2165 176.148 61.2165 175.727C61.2165 175.327 61.2739 174.952 61.3885 174.603C61.5059 174.254 61.6739 173.95 61.8925 173.691C62.1112 173.43 62.3779 173.224 62.6925 173.075C63.0072 172.926 63.3645 172.851 63.7645 172.851C64.1965 172.851 64.5712 172.928 64.8885 173.083C65.2085 173.235 65.4725 173.442 65.6805 173.703C65.8912 173.964 66.0472 174.27 66.1485 174.619C66.2525 174.966 66.3045 175.335 66.3045 175.727C66.3045 175.959 66.2832 176.191 66.2405 176.423C66.1979 176.655 66.1312 176.878 66.0405 177.091C65.9525 177.304 65.8392 177.504 65.7005 177.691C65.5645 177.875 65.4019 178.035 65.2125 178.171C65.0232 178.307 64.8072 178.414 64.5645 178.491C64.3245 178.571 64.0552 178.611 63.7565 178.611ZM63.8325 178.323C64.1125 178.323 64.3565 178.26 64.5645 178.135C64.7752 178.007 64.9499 177.832 65.0885 177.611C65.2299 177.39 65.3352 177.13 65.4045 176.831C65.4765 176.53 65.5125 176.206 65.5125 175.859C65.5125 175.459 65.4752 175.092 65.4005 174.759C65.3285 174.426 65.2165 174.139 65.0645 173.899C64.9152 173.659 64.7259 173.472 64.4965 173.339C64.2672 173.206 63.9965 173.139 63.6845 173.139C63.3885 173.139 63.1339 173.207 62.9205 173.343C62.7099 173.479 62.5365 173.66 62.4005 173.887C62.2672 174.111 62.1685 174.371 62.1045 174.667C62.0432 174.96 62.0125 175.267 62.0125 175.587C62.0125 175.979 62.0485 176.342 62.1205 176.675C62.1925 177.008 62.3032 177.298 62.4525 177.543C62.6019 177.786 62.7899 177.976 63.0165 178.115C63.2459 178.254 63.5179 178.323 63.8325 178.323ZM66.7512 178.299L67.2592 178.167C67.3125 178.154 67.3565 178.126 67.3912 178.083C67.4285 178.038 67.4472 177.987 67.4472 177.931V173.523C67.4472 173.462 67.4285 173.411 67.3912 173.371C67.3565 173.328 67.3125 173.3 67.2592 173.287L66.7112 173.163V172.975H68.0552L70.6992 176.775L71.0752 177.323V173.531C71.0752 173.47 71.0565 173.419 71.0192 173.379C70.9845 173.336 70.9405 173.308 70.8872 173.295L70.3792 173.163V172.975H72.1192V173.163L71.6112 173.295C71.5578 173.308 71.5125 173.336 71.4752 173.379C71.4378 173.422 71.4192 173.472 71.4192 173.531V177.571L71.2992 178.527H71.0752L68.2112 174.415L67.7912 173.803V177.931C67.7912 177.992 67.8085 178.044 67.8432 178.087C67.8805 178.127 67.9258 178.154 67.9792 178.167L68.4872 178.299V178.487H66.7512V178.299ZM72.4113 178.299L72.9193 178.191C72.9727 178.178 73.0167 178.15 73.0513 178.107C73.0887 178.064 73.1073 178.014 73.1073 177.955V173.507C73.1073 173.446 73.0887 173.394 73.0513 173.351C73.0167 173.308 72.9727 173.28 72.9193 173.267L72.4113 173.163V172.975H76.4353V174.259H76.2193L75.9353 173.415C75.922 173.375 75.9033 173.342 75.8793 173.315C75.8553 173.288 75.8193 173.275 75.7713 173.275H73.8273V175.523H75.1313C75.1847 175.523 75.2233 175.511 75.2473 175.487C75.2713 175.46 75.29 175.428 75.3033 175.391L75.5313 174.711H75.7193V176.635H75.5313L75.3033 175.963C75.29 175.923 75.2713 175.89 75.2473 175.863C75.2233 175.836 75.1847 175.823 75.1313 175.823H73.8273V177.955C73.8273 178.016 73.846 178.067 73.8833 178.107C73.9207 178.147 73.966 178.175 74.0193 178.191L74.5913 178.299V178.487H72.4113V178.299ZM76.718 178.299L77.226 178.191C77.2793 178.178 77.3233 178.15 77.358 178.107C77.3953 178.064 77.414 178.014 77.414 177.955V173.507C77.414 173.446 77.3953 173.394 77.358 173.351C77.3233 173.308 77.2793 173.28 77.226 173.267L76.718 173.163V172.975H80.734V174.267H80.51L80.226 173.415C80.2126 173.375 80.194 173.342 80.17 173.315C80.146 173.288 80.11 173.275 80.062 173.275H78.134V175.463H79.398C79.4513 175.463 79.49 175.451 79.514 175.427C79.538 175.403 79.5566 175.372 79.57 175.335L79.798 174.679H79.994V176.555H79.798L79.57 175.907C79.5566 175.864 79.538 175.831 79.514 175.807C79.49 175.78 79.4513 175.767 79.398 175.767H78.134V178.183H80.406C80.454 178.183 80.49 178.171 80.514 178.147C80.538 178.12 80.5566 178.086 80.57 178.043L80.838 177.079H81.062V178.487H76.718V178.299ZM81.4729 178.299L81.9809 178.191C82.0342 178.178 82.0782 178.15 82.1129 178.107C82.1502 178.064 82.1689 178.014 82.1689 177.955V173.507C82.1689 173.446 82.1502 173.394 82.1129 173.351C82.0782 173.308 82.0342 173.28 81.9809 173.267L81.4729 173.163V172.975H83.4969C83.7689 172.975 84.0075 172.994 84.2129 173.031C84.4182 173.068 84.5942 173.12 84.7409 173.187C84.8902 173.251 85.0129 173.327 85.1089 173.415C85.2075 173.5 85.2849 173.594 85.3409 173.695C85.3995 173.796 85.4395 173.903 85.4609 174.015C85.4849 174.124 85.4969 174.234 85.4969 174.343C85.4969 174.57 85.4555 174.771 85.3729 174.947C85.2929 175.123 85.1902 175.274 85.0649 175.399C84.9422 175.524 84.8075 175.627 84.6609 175.707C84.5142 175.784 84.3769 175.839 84.2489 175.871L85.7649 177.871C85.7889 177.903 85.8182 177.938 85.8529 177.975C85.8875 178.01 85.9235 178.043 85.9609 178.075C85.9982 178.104 86.0355 178.131 86.0729 178.155C86.1129 178.176 86.1502 178.191 86.1849 178.199L86.6329 178.299V178.487H85.7889C85.6689 178.487 85.5689 178.478 85.4889 178.459C85.4115 178.44 85.3435 178.411 85.2849 178.371C85.2262 178.328 85.1715 178.276 85.1209 178.215C85.0729 178.151 85.0169 178.075 84.9529 177.987L83.5369 176.031L82.8889 175.907V177.955C82.8889 178.016 82.9035 178.067 82.9329 178.107C82.9649 178.147 83.0075 178.175 83.0609 178.191L83.6529 178.299V178.487H81.4729V178.299ZM82.8889 175.659C82.9182 175.667 82.9595 175.674 83.0129 175.679C83.0662 175.684 83.1235 175.69 83.1849 175.695C83.2462 175.698 83.3049 175.7 83.3609 175.703C83.4195 175.703 83.4675 175.703 83.5049 175.703C83.7129 175.703 83.8929 175.67 84.0449 175.603C84.1995 175.534 84.3275 175.443 84.4289 175.331C84.5302 175.219 84.6062 175.09 84.6569 174.943C84.7075 174.796 84.7329 174.643 84.7329 174.483C84.7329 174.27 84.7035 174.087 84.6449 173.935C84.5862 173.78 84.5009 173.654 84.3889 173.555C84.2795 173.456 84.1435 173.384 83.9809 173.339C83.8182 173.291 83.6329 173.267 83.4249 173.267H82.8889V175.659ZM86.5354 178.299L87.0434 178.191C87.0967 178.178 87.1407 178.15 87.1754 178.107C87.2127 178.064 87.2314 178.014 87.2314 177.955V173.507C87.2314 173.446 87.2127 173.394 87.1754 173.351C87.1407 173.308 87.0967 173.28 87.0434 173.267L86.5354 173.163V172.975H88.5594C88.8314 172.975 89.07 172.994 89.2754 173.031C89.4807 173.068 89.6567 173.12 89.8034 173.187C89.9527 173.251 90.0754 173.327 90.1714 173.415C90.27 173.5 90.3474 173.594 90.4034 173.695C90.462 173.796 90.502 173.903 90.5234 174.015C90.5474 174.124 90.5594 174.234 90.5594 174.343C90.5594 174.57 90.518 174.771 90.4354 174.947C90.3554 175.123 90.2527 175.274 90.1274 175.399C90.0047 175.524 89.87 175.627 89.7234 175.707C89.5767 175.784 89.4394 175.839 89.3114 175.871L90.8274 177.871C90.8514 177.903 90.8807 177.938 90.9154 177.975C90.95 178.01 90.986 178.043 91.0234 178.075C91.0607 178.104 91.098 178.131 91.1354 178.155C91.1754 178.176 91.2127 178.191 91.2474 178.199L91.6954 178.299V178.487H90.8514C90.7314 178.487 90.6314 178.478 90.5514 178.459C90.474 178.44 90.406 178.411 90.3474 178.371C90.2887 178.328 90.234 178.276 90.1834 178.215C90.1354 178.151 90.0794 178.075 90.0154 177.987L88.5994 176.031L87.9514 175.907V177.955C87.9514 178.016 87.966 178.067 87.9954 178.107C88.0274 178.147 88.07 178.175 88.1234 178.191L88.7154 178.299V178.487H86.5354V178.299ZM87.9514 175.659C87.9807 175.667 88.022 175.674 88.0754 175.679C88.1287 175.684 88.186 175.69 88.2474 175.695C88.3087 175.698 88.3674 175.7 88.4234 175.703C88.482 175.703 88.53 175.703 88.5674 175.703C88.7754 175.703 88.9554 175.67 89.1074 175.603C89.262 175.534 89.39 175.443 89.4914 175.331C89.5927 175.219 89.6687 175.09 89.7194 174.943C89.77 174.796 89.7954 174.643 89.7954 174.483C89.7954 174.27 89.766 174.087 89.7074 173.935C89.6487 173.78 89.5634 173.654 89.4514 173.555C89.342 173.456 89.206 173.384 89.0434 173.339C88.8807 173.291 88.6954 173.267 88.4874 173.267H87.9514V175.659ZM91.5979 178.299L92.1059 178.191C92.1592 178.178 92.2032 178.15 92.2379 178.107C92.2752 178.064 92.2939 178.014 92.2939 177.955V173.507C92.2939 173.446 92.2752 173.394 92.2379 173.351C92.2032 173.308 92.1592 173.28 92.1059 173.267L91.5979 173.163V172.975H95.6139V174.267H95.3899L95.1059 173.415C95.0925 173.375 95.0739 173.342 95.0499 173.315C95.0259 173.288 94.9899 173.275 94.9419 173.275H93.0139V175.463H94.2779C94.3312 175.463 94.3699 175.451 94.3939 175.427C94.4179 175.403 94.4365 175.372 94.4499 175.335L94.6779 174.679H94.8739V176.555H94.6779L94.4499 175.907C94.4365 175.864 94.4179 175.831 94.3939 175.807C94.3699 175.78 94.3312 175.767 94.2779 175.767H93.0139V178.183H95.2859C95.3339 178.183 95.3699 178.171 95.3939 178.147C95.4179 178.12 95.4365 178.086 95.4499 178.043L95.7179 177.079H95.9419V178.487H91.5979V178.299ZM96.3527 178.299L96.8607 178.167C96.9141 178.154 96.9581 178.126 96.9927 178.083C97.0301 178.038 97.0487 177.987 97.0487 177.931V173.523C97.0487 173.462 97.0301 173.411 96.9927 173.371C96.9581 173.328 96.9141 173.3 96.8607 173.287L96.3127 173.163V172.975H97.6567L100.301 176.775L100.677 177.323V173.531C100.677 173.47 100.658 173.419 100.621 173.379C100.586 173.336 100.542 173.308 100.489 173.295L99.9807 173.163V172.975H101.721V173.163L101.213 173.295C101.159 173.308 101.114 173.336 101.077 173.379C101.039 173.422 101.021 173.472 101.021 173.531V177.571L100.901 178.527H100.677L97.8127 174.415L97.3927 173.803V177.931C97.3927 177.992 97.4101 178.044 97.4447 178.087C97.4821 178.127 97.5274 178.154 97.5807 178.167L98.0887 178.299V178.487H96.3527V178.299ZM106.681 177.411V177.747C106.572 177.84 106.445 177.938 106.301 178.039C106.157 178.138 106 178.23 105.829 178.315C105.661 178.398 105.482 178.466 105.293 178.519C105.104 178.575 104.91 178.603 104.713 178.603C104.31 178.603 103.946 178.538 103.621 178.407C103.298 178.274 103.022 178.084 102.793 177.839C102.564 177.591 102.386 177.291 102.261 176.939C102.138 176.584 102.077 176.186 102.077 175.743C102.077 175.316 102.144 174.926 102.277 174.571C102.413 174.216 102.6 173.912 102.837 173.659C103.074 173.406 103.353 173.21 103.673 173.071C103.996 172.93 104.345 172.859 104.721 172.859C104.852 172.859 104.996 172.868 105.153 172.887C105.31 172.906 105.468 172.93 105.625 172.959C105.782 172.988 105.933 173.022 106.077 173.059C106.221 173.096 106.346 173.134 106.453 173.171V174.447H106.241L105.985 173.747C105.972 173.696 105.95 173.659 105.921 173.635C105.892 173.611 105.858 173.588 105.821 173.567C105.736 173.519 105.64 173.474 105.533 173.431C105.426 173.388 105.314 173.351 105.197 173.319C105.08 173.284 104.961 173.258 104.841 173.239C104.724 173.22 104.61 173.211 104.501 173.211C104.264 173.211 104.045 173.262 103.845 173.363C103.645 173.462 103.473 173.611 103.329 173.811C103.185 174.011 103.073 174.262 102.993 174.563C102.913 174.862 102.873 175.211 102.873 175.611C102.873 176.446 103.05 177.072 103.405 177.491C103.76 177.91 104.268 178.119 104.929 178.119C105.148 178.119 105.342 178.096 105.513 178.051C105.684 178.003 105.837 177.944 105.973 177.875C106.109 177.803 106.228 177.726 106.329 177.643C106.433 177.56 106.526 177.483 106.609 177.411H106.681ZM106.987 178.299L107.495 178.191C107.549 178.178 107.593 178.15 107.627 178.107C107.665 178.064 107.683 178.014 107.683 177.955V173.507C107.683 173.446 107.665 173.394 107.627 173.351C107.593 173.308 107.549 173.28 107.495 173.267L106.987 173.163V172.975H111.003V174.267H110.779L110.495 173.415C110.482 173.375 110.463 173.342 110.439 173.315C110.415 173.288 110.379 173.275 110.331 173.275H108.403V175.463H109.667C109.721 175.463 109.759 175.451 109.783 175.427C109.807 175.403 109.826 175.372 109.839 175.335L110.067 174.679H110.263V176.555H110.067L109.839 175.907C109.826 175.864 109.807 175.831 109.783 175.807C109.759 175.78 109.721 175.767 109.667 175.767H108.403V178.183H110.675C110.723 178.183 110.759 178.171 110.783 178.147C110.807 178.12 110.826 178.086 110.839 178.043L111.107 177.079H111.331V178.487H106.987V178.299ZM111.85 176.839H112.062L112.378 177.635C112.392 177.667 112.417 177.704 112.454 177.747C112.494 177.79 112.529 177.82 112.558 177.839C112.654 177.9 112.758 177.956 112.87 178.007C112.982 178.058 113.094 178.102 113.206 178.139C113.318 178.174 113.425 178.202 113.526 178.223C113.628 178.242 113.717 178.251 113.794 178.251C113.962 178.251 114.114 178.227 114.25 178.179C114.389 178.131 114.506 178.062 114.602 177.971C114.701 177.878 114.776 177.764 114.826 177.631C114.88 177.495 114.906 177.34 114.906 177.167C114.906 176.922 114.84 176.722 114.706 176.567C114.573 176.41 114.393 176.283 114.166 176.187C114.065 176.144 113.965 176.11 113.866 176.083C113.768 176.054 113.668 176.026 113.566 175.999C113.468 175.972 113.368 175.946 113.266 175.919C113.168 175.89 113.069 175.855 112.97 175.815C112.672 175.695 112.44 175.523 112.274 175.299C112.112 175.075 112.03 174.803 112.03 174.483C112.03 174.256 112.074 174.044 112.162 173.847C112.25 173.647 112.372 173.474 112.526 173.327C112.684 173.178 112.869 173.062 113.082 172.979C113.296 172.894 113.526 172.851 113.774 172.851C113.91 172.851 114.045 172.859 114.178 172.875C114.312 172.888 114.442 172.907 114.57 172.931C114.698 172.955 114.822 172.984 114.942 173.019C115.062 173.051 115.178 173.086 115.29 173.123V174.423H115.078L114.802 173.683C114.789 173.643 114.764 173.607 114.726 173.575C114.692 173.543 114.66 173.516 114.63 173.495C114.566 173.447 114.492 173.406 114.406 173.371C114.321 173.336 114.233 173.307 114.142 173.283C114.054 173.259 113.968 173.242 113.882 173.231C113.797 173.218 113.724 173.211 113.662 173.211C113.505 173.211 113.364 173.234 113.238 173.279C113.116 173.322 113.012 173.382 112.926 173.459C112.841 173.536 112.774 173.63 112.726 173.739C112.681 173.848 112.658 173.967 112.658 174.095C112.658 174.207 112.669 174.316 112.69 174.423C112.712 174.53 112.75 174.63 112.806 174.723C112.862 174.816 112.938 174.903 113.034 174.983C113.133 175.06 113.257 175.126 113.406 175.179C113.502 175.214 113.597 175.244 113.69 175.271C113.786 175.298 113.882 175.324 113.978 175.351C114.074 175.378 114.172 175.407 114.27 175.439C114.372 175.471 114.477 175.51 114.586 175.555C114.709 175.606 114.829 175.667 114.946 175.739C115.066 175.808 115.173 175.895 115.266 175.999C115.36 176.103 115.434 176.227 115.49 176.371C115.549 176.515 115.578 176.686 115.578 176.883C115.578 177.094 115.54 177.303 115.462 177.511C115.388 177.716 115.268 177.9 115.102 178.063C114.94 178.226 114.73 178.358 114.474 178.459C114.218 178.56 113.912 178.611 113.554 178.611C113.437 178.611 113.313 178.6 113.182 178.579C113.054 178.56 112.921 178.535 112.782 178.503C112.646 178.471 112.508 178.434 112.366 178.391C112.225 178.348 112.085 178.304 111.946 178.259L111.85 176.839Z" fill="#3C3D59" fill-opacity="0.8"/>
<path d="M27.742 11.2336C27.6831 11.5132 27.6316 11.8001 27.5874 12.087V11.9546L27.742 11.2336Z" fill="#010101"/>
<path d="M109.036 139.642V140.989C108.885 140.802 108.775 140.586 108.714 140.353C108.653 140.121 108.643 139.879 108.683 139.642C108.706 139.497 108.751 139.356 108.815 139.223C108.9 139.356 108.974 139.497 109.036 139.642Z" fill="#010101"/>
<path d="M109.036 139.642V140.989C108.885 140.802 108.775 140.586 108.714 140.353C108.653 140.121 108.643 139.879 108.683 139.642C108.706 139.497 108.751 139.356 108.815 139.223C108.9 139.356 108.974 139.497 109.036 139.642Z" fill="#14141C"/>
<path d="M116 140.606C97.9643 140.606 81.2004 140.606 62.9968 140.606C62.9968 136.837 62.9968 127.173 62.9968 120.362C72.3091 120.362 81.4375 120.362 90.6027 120.362C94.1142 120.428 95.3363 119.536 95.3142 115.997C95.189 90.6154 95.4319 63.6615 95.3877 38.28C95.3877 33.127 98.7004 27.9739 105.694 27.9739C112.687 27.9739 116 33.1269 116 38.034C116 72.3888 116 106.302 116 140.606Z" fill="#3C3D59"/>
<path d="M109.036 139.642H108.683C108.706 139.497 108.751 139.356 108.815 139.223C108.9 139.356 108.974 139.497 109.036 139.642Z" fill="#3D3E59"/>
<path d="M56.3714 120.396C56.3714 127.355 56.3714 133.747 56.3714 140.606H3C3.00002 118.101 3 94.2057 3 70.9355C3.00001 65.5136 5.20847 58.8923 13.3062 58.8923C21.4039 58.8923 23.605 65.5134 23.605 70.7442C23.605 86.7595 23.6124 104.941 23.6124 120.361C34.2896 120.403 45.6942 120.396 56.3714 120.396Z" fill="#3C3D59"/>
<path d="M91.6331 84.7815C91.6331 79.948 90.4037 78.5723 85.7438 78.5576C67.9288 78.5061 50.1065 78.5576 32.2841 78.5576C28.6891 78.5576 26.1887 80.2728 26.1887 83.9355C26.1887 93.139 26.1887 102.328 26.1887 111.546C26.1887 114.349 27.1089 116.247 30.0977 116.696C48.4084 116.696 66.7166 116.676 85.0224 116.637C89.4393 116.637 91.6993 114.43 91.7214 110.016C91.7018 101.604 91.6723 93.193 91.6331 84.7815ZM70.7264 104.506C64.0126 104.506 54.6193 104.506 47.9055 104.506C42.7524 104.506 41.6482 101.221 41.6482 97.1726C41.6482 93.1237 43.8567 90.3213 50.2095 90.3213C58.7489 90.3213 62.187 90.2551 70.7264 90.3213C75.8795 90.3213 78.8241 92.7557 78.8241 97.9088C78.8241 103.062 75.5114 104.506 70.7264 104.506Z" fill="#FBC531"/>
<path d="M69.1657 70.6047C69.1657 73.5475 67.8407 74.8276 64.9402 74.7761C61.1637 74.7172 57.3725 74.6069 53.596 74.7761C50.9164 74.9306 50.298 73.8123 50.3128 71.3845C50.4011 60.7684 50.3569 50.1597 50.3569 39.551C50.3569 29.185 50.3569 18.8191 50.3569 8.45315C50.3569 2.79566 53.3016 0.0367979 59.1908 1.31388e-05C65.323 -0.00734381 69.1142 3.07522 69.1289 8.40901C69.1878 29.1409 69.1363 49.8728 69.1657 70.6047Z" fill="#FBC531"/>
<path d="M91.7069 18.4036C91.5548 35.6189 91.4345 53.1096 91.4198 70.3248C91.4198 73.6649 90.0652 74.945 86.8114 74.7905C83.5162 74.5992 80.2127 74.5992 76.9175 74.7905C73.9066 75.0038 72.8465 74.0033 72.9054 70.9207C73.0747 61.8864 72.9643 52.8447 72.9643 43.8103C72.9643 34.8937 72.7949 27.4544 72.7949 18.4036C72.795 11.2588 75.5116 8.09741 82.137 8.09741C88.7624 8.09741 91.7069 11.5028 91.7069 18.4036Z" fill="#FBC531"/>
<path d="M46.8454 71.1193C46.8454 73.8487 46.0062 75.1288 43.0616 75.0111C38.1956 74.8124 33.3296 74.9007 28.4636 74.8639C26.2551 74.5549 26.2551 72.8628 26.2551 71.2737C26.2551 52.5429 26.2551 33.8122 26.2551 15.0814C26.2551 13.6184 26.8552 12.2849 27.7569 11.2337C31.71 6.62493 40.1758 5.88883 45.2701 10.498C46.065 11.41 46.6963 12.5142 46.6982 14.1764C46.7203 33.1427 46.7277 52.1457 46.8454 71.1193Z" fill="#FBC531"/>
<path d="M27.742 11.2336C27.6831 11.5132 27.6316 11.8001 27.5874 12.087V11.9546L27.742 11.2336Z" fill="#A77330"/>
</g>
<defs>
<clipPath id="clip0">
<rect width="117.965" height="181.87" fill="white"/>
</clipPath>
</defs>
</svg>
