<svg width="113" height="141" viewBox="0 0 113 141" fill="none" xmlns="http://www.w3.org/2000/svg">
<path d="M24.742 11.2336C24.6831 11.5132 24.6316 11.8001 24.5874 12.087V11.9546L24.742 11.2336Z" fill="#010101"/>
<path d="M106.036 139.642V140.989C105.885 140.802 105.775 140.586 105.714 140.353C105.653 140.121 105.643 139.879 105.683 139.642C105.706 139.497 105.751 139.356 105.815 139.223C105.9 139.356 105.974 139.497 106.036 139.642Z" fill="#010101"/>
<path d="M106.036 139.642V140.989C105.885 140.802 105.775 140.586 105.714 140.353C105.653 140.121 105.643 139.879 105.683 139.642C105.706 139.497 105.751 139.356 105.815 139.223C105.9 139.356 105.974 139.497 106.036 139.642Z" fill="#14141C"/>
<path d="M113 140.606C94.9643 140.606 78.2004 140.606 59.9968 140.606C59.9968 136.837 59.9968 127.173 59.9968 120.362C69.3091 120.362 78.4375 120.362 87.6027 120.362C91.1142 120.428 92.3363 119.536 92.3142 115.997C92.189 90.6154 92.4319 63.6615 92.3877 38.28C92.3877 33.127 95.7004 27.9739 102.694 27.9739C109.687 27.9739 113 33.1269 113 38.034C113 72.3888 113 106.302 113 140.606Z" fill="#3C3D59"/>
<path d="M106.036 139.642H105.683C105.706 139.497 105.751 139.356 105.815 139.223C105.9 139.356 105.974 139.497 106.036 139.642Z" fill="#3D3E59"/>
<path d="M53.3714 120.396C53.3714 127.355 53.3714 133.747 53.3714 140.606H0C2.49997e-05 118.101 0 94.2057 0 70.9355C1.08112e-05 65.5136 2.20847 58.8923 10.3062 58.8923C18.4039 58.8923 20.605 65.5134 20.605 70.7442C20.605 86.7595 20.6124 104.941 20.6124 120.361C31.2896 120.403 42.6942 120.396 53.3714 120.396Z" fill="#3C3D59"/>
<path d="M88.6331 84.7815C88.6331 79.948 87.4037 78.5723 82.7438 78.5576C64.9288 78.5061 47.1065 78.5576 29.2841 78.5576C25.6891 78.5576 23.1887 80.2728 23.1887 83.9355C23.1887 93.139 23.1887 102.328 23.1887 111.546C23.1887 114.349 24.1089 116.247 27.0977 116.696C45.4084 116.696 63.7166 116.676 82.0224 116.637C86.4393 116.637 88.6993 114.43 88.7214 110.016C88.7018 101.604 88.6723 93.193 88.6331 84.7815ZM67.7264 104.506C61.0126 104.506 51.6193 104.506 44.9055 104.506C39.7524 104.506 38.6482 101.221 38.6482 97.1726C38.6482 93.1237 40.8567 90.3213 47.2095 90.3213C55.7489 90.3213 59.187 90.2551 67.7264 90.3213C72.8795 90.3213 75.8241 92.7557 75.8241 97.9088C75.8241 103.062 72.5114 104.506 67.7264 104.506Z" fill="#FBC531"/>
<path d="M66.1657 70.6047C66.1657 73.5475 64.8407 74.8276 61.9402 74.7761C58.1637 74.7172 54.3725 74.6069 50.596 74.7761C47.9164 74.9306 47.298 73.8123 47.3128 71.3845C47.4011 60.7684 47.3569 50.1597 47.3569 39.551C47.3569 29.185 47.3569 18.8191 47.3569 8.45315C47.3569 2.79566 50.3016 0.0367979 56.1908 1.31388e-05C62.323 -0.00734381 66.1142 3.07522 66.1289 8.40901C66.1878 29.1409 66.1363 49.8728 66.1657 70.6047Z" fill="#FBC531"/>
<path d="M88.7069 18.4036C88.5548 35.6189 88.4345 53.1096 88.4198 70.3248C88.4198 73.6649 87.0652 74.945 83.8114 74.7905C80.5162 74.5992 77.2127 74.5992 73.9175 74.7905C70.9066 75.0038 69.8465 74.0033 69.9054 70.9207C70.0747 61.8864 69.9643 52.8447 69.9643 43.8103C69.9643 34.8937 69.7949 27.4544 69.7949 18.4036C69.795 11.2588 72.5116 8.09741 79.137 8.09741C85.7624 8.09741 88.7069 11.5028 88.7069 18.4036Z" fill="#FBC531"/>
<path d="M43.8454 71.1193C43.8454 73.8487 43.0062 75.1288 40.0616 75.0111C35.1956 74.8124 30.3296 74.9007 25.4636 74.8639C23.2551 74.5549 23.2551 72.8628 23.2551 71.2737C23.2551 52.5429 23.2551 33.8122 23.2551 15.0814C23.2551 13.6184 23.8552 12.2849 24.7569 11.2337C28.71 6.62493 37.1758 5.88883 42.2701 10.498C43.065 11.41 43.6963 12.5142 43.6982 14.1764C43.7203 33.1427 43.7277 52.1457 43.8454 71.1193Z" fill="#FBC531"/>
<path d="M24.742 11.2336C24.6831 11.5132 24.6316 11.8001 24.5874 12.087V11.9546L24.742 11.2336Z" fill="#A77330"/>
</svg>
